<svg width="128" height="128" xmlns="http://www.w3.org/2000/svg" xmlns:xlink="http://www.w3.org/1999/xlink"><defs><path d="M76.245 36.579V93.42h16.058V101H68.216V29h24.087v7.579H76.245zm28.386 24.22L94.452 50.657 100.13 45 120 64.799l-19.87 19.799-5.678-5.657 10.18-10.142H84.273v-8h20.357zM52.16 36.579H36.1V29h24.086v72H36.101v-7.579h16.058V36.58zm-28.79 24.22h20.357v8H23.37l10.179 10.142-5.678 5.657L8 64.799 27.87 45l5.678 5.657-10.18 10.142z" id="a"/></defs><g fill="none" fill-rule="evenodd"><mask id="b" fill="#fff"><use xlink:href="#a"/></mask><use fill="#979797" fill-rule="nonzero" transform="rotate(-180 64 65)" xlink:href="#a"/><g mask="url(#b)" fill="#E7E7E7"><path d="M0 0h128.021v128.021H0z"/></g></g></svg>