<svg width="128" height="128" xmlns="http://www.w3.org/2000/svg" xmlns:xlink="http://www.w3.org/1999/xlink"><defs><path d="M63.833 56.21l20.69-20.69-7.623-7.623-20.69 20.69-19.601-19.6-7.623 7.622L48.587 56.21l-19.6 19.601 7.622 7.623L56.21 63.833l20.69 20.69 7.623-7.623-20.69-20.69zm-47.37 39.746c-21.95-21.95-21.95-57.541 0-79.492 21.952-21.952 57.542-21.952 79.493 0 21.952 21.95 21.952 57.541 0 79.492-21.95 21.952-57.541 21.952-79.492 0z" id="a"/></defs><g transform="translate(7.7 7.7)" fill="none" fill-rule="evenodd"><mask id="b" fill="#fff"><use xlink:href="#a"/></mask><use fill="#FFF" xlink:href="#a"/><g mask="url(#b)" fill="#E7E7E7"><path d="M-7.7-7.7h128.021v128.021H-7.7z"/></g></g></svg>