<svg height="128" viewBox="0 0 128 128" width="128" xmlns="http://www.w3.org/2000/svg"><path d="m86.8588783 67.0219167c-.0896262.0002995-.1792523.0004492-.2688784.0004492-7.5177704 0-15.0355408-1.0536018-22.5533111-3.1608055-.1525859-.0427692-.3098482-.0663382-.4681922-.0701682-1.058557-.0256043-1.9373046.8175452-1.9627376 1.883227l-.6593855 27.6286745c-.1583918 6.6368486 2.6423236 12.9966583 7.633913 17.3349403.6247286.542963 1.2370474 1.064931 1.8369562 1.565904h-41.8772427v-32.2967817c0-11.5226606 6.4621911-21.5469377 15.9849612-26.6958797 3.9695363 3.2927305 9.0619669 5.271282 14.6150388 5.271282s10.6455025-1.9785515 14.6150388-5.271282c5.7157397 3.0904886 10.3288695 7.9373745 13.1038395 13.8104401zm-27.7188783-14.1695029c-10.5624458 0-19.125-8.5899574-19.125-19.1862069s8.5625542-19.1862069 19.125-19.1862069 19.125 8.5899574 19.125 19.1862069-8.5625542 19.1862069-19.125 19.1862069zm8.9620658 16.3784423c6.4626447 1.8108781 12.9252894 2.7163172 19.3879341 2.7163172 6.4626426 0 12.9252851-.9054385 19.3879281-2.7163154.876903-.2457184 1.785697.2705185 2.029847 1.1530435.036521.1320123.056647.2680704.059917.4050643l.566829 23.7433799c.136161 5.7035424-2.271471 11.1690034-6.562487 14.8972144-6.9444539 6.033627-12.1051319 9.05044-15.4820341 9.05044-3.3769023 0-8.5375804-3.016813-15.4820343-9.05044-4.2910154-3.728211-6.698648-9.193673-6.5624867-14.8972144l.5668402-23.7433921c.0218635-.9158203.7772781-1.6404019 1.6872657-1.6183983.1361203.0032914.2713107.023546.402481.0603009zm19.8379342 31.4287689 8.3434588 3.475547-.686302-9.1084448 5.8428432-6.9604385-8.7676168-2.1537809-4.7323832-7.7773354-4.7323832 7.7773354-8.7676168 2.1537809 5.8428432 6.9604385-.686302 9.1084448z" fill="#9391ff" fill-rule="evenodd"/></svg>