<svg width="83" height="83" xmlns="http://www.w3.org/2000/svg" xmlns:xlink="http://www.w3.org/1999/xlink"><defs><path d="M34 68C15.222 68 0 52.778 0 34S15.222 0 34 0s34 15.222 34 34-15.222 34-34 34zm4.179-31.6c4.737 1.74 10.211.749 13.958-2.998 3.612-3.612 4.664-8.83 3.174-13.446l-5.608 5.608-7.112-1.708-1.708-7.112 5.608-5.608c-4.615-1.49-9.833-.438-13.446 3.174-3.746 3.747-4.738 9.221-2.997 13.958L10.95 46.305l9.192 9.192L38.18 36.4z" id="a"/></defs><g transform="translate(8 8)" fill="none" fill-rule="evenodd"><mask id="b" fill="#fff"><use xlink:href="#a"/></mask><use fill="#D8D8D8" xlink:href="#a"/><g mask="url(#b)" fill="#E7E7E7"><path d="M-14-14h94v94h-94z"/></g></g></svg>