<?xml version="1.0" encoding="UTF-8"?>
<svg width="28px" height="25px" viewBox="0 0 28 25" version="1.1" xmlns="http://www.w3.org/2000/svg" xmlns:xlink="http://www.w3.org/1999/xlink">
    <!-- Generator: Sketch 52.3 (67297) - http://www.bohemiancoding.com/sketch -->
    <title>AdminSettings</title>
    <desc>Created with Sketch.</desc>
    <g id="Symbols" stroke="none" stroke-width="1" fill="none" fill-rule="evenodd">
        <g id="AdminSettings" transform="translate(-3.000000, -5.000000)">
            <g>
                <rect id="Rectangle" x="0" y="0" width="34" height="34"></rect>
                <g id="Admin" transform="translate(4.000000, 5.000000)">
                    <path d="M0.75,24 C0.75,20.57 4.93,18.78 10.08,18.78 C15.23,18.78 19.4,20.58 19.4,24" id="Path" stroke="#8BA7B9" stroke-width="1.8" stroke-linecap="round" stroke-linejoin="round"></path>
                    <circle id="Oval" stroke="#8BA7B9" stroke-width="1.8" cx="10.08" cy="10.71" r="5.18"></circle>
                    <path d="M26.06,7.06 L24.78,6.33 C24.6967336,6.27331068 24.6003396,6.23888424 24.5,6.23 C24.5054371,6.13340979 24.5054371,6.03659021 24.5,5.94 C24.5,5.85 24.5,5.76 24.5,5.66 C24.5974457,5.65829057 24.693214,5.6343485 24.78,5.59 L26.06,4.85 C26.2286089,4.74879061 26.3534085,4.58833403 26.41,4.4 C26.4590956,4.20685976 26.4303663,4.00216313 26.33,3.83 L25.33,2.13 C25.2304555,1.95579703 25.0644411,1.82948177 24.87,1.78 C24.6781574,1.72788731 24.4735326,1.75301667 24.3,1.85 L23.03,2.59 C22.9543019,2.63913458 22.8868093,2.69987789 22.83,2.77 C22.6723482,2.66705768 22.5087274,2.57356005 22.34,2.49 C22.3729219,2.40378236 22.3898651,2.31228932 22.39,2.22 L22.39,0.75 C22.3901446,0.343472865 22.0663826,0.0108406986 21.66,0 L19.66,0 C19.2812762,0.0457675535 18.9972446,0.368530746 19,0.75 L19,2.22 C18.9987,2.31344452 19.0192459,2.40590084 19.06,2.49 C18.8880242,2.57351934 18.7210733,2.66701187 18.56,2.77 C18.5056008,2.69763102 18.4376796,2.63650191 18.36,2.59 L17,1.85 C16.8268119,1.75196744 16.6217622,1.7267859 16.43,1.78 C16.2370341,1.83250532 16.0720652,1.95802514 15.97,2.13 L14.97,3.83 C14.7801544,4.18449482 14.9036733,4.62563342 15.25,4.83 L16.52,5.57 C16.6072493,5.61309979 16.7027331,5.63697072 16.8,5.64 C16.8,5.74 16.8,5.83 16.8,5.92 C16.7950787,6.01660403 16.7950787,6.11339597 16.8,6.21 C16.6996604,6.21888424 16.6032664,6.25331068 16.52,6.31 L16,6.61 C16.2812738,7.02097416 16.5192108,7.45998456 16.71,7.92 L17.2,7.65 C17.2656589,7.78741269 17.3391118,7.92096346 17.42,8.05 L16.88,8.37 C17.0529384,8.86890198 17.1703149,9.38535861 17.23,9.91 L18.23,9.32 C18.314514,9.26677632 18.3889864,9.19907415 18.45,9.12 C18.6,9.22 18.77,9.3 18.93,9.39 C18.8890344,9.48463943 18.8685854,9.58688453 18.87,9.69 L18.87,11.15 C18.8672822,11.3497332 18.9454267,11.5420818 19.0866725,11.6833275 C19.2279182,11.8245733 19.4202668,11.9027178 19.62,11.9 L21.62,11.9 C21.8197332,11.9027178 22.0120818,11.8245733 22.1533275,11.6833275 C22.2945733,11.5420818 22.3727178,11.3497332 22.37,11.15 L22.37,9.7 C22.3714146,9.59688453 22.3509656,9.49463943 22.31,9.4 C23.0813471,9.0368374 23.7107601,8.42852206 24.1,7.67 L24.66,7.98 L24.42,8.39 C24.1165156,8.33063572 23.8066184,8.45616371 23.63,8.71 C23.4340977,9.05013142 23.5294368,9.48349101 23.85,9.71 L24.29,10 C24.4116431,10.0799888 24.5544249,10.1217786 24.7,10.12 L24.87,10.12 C25.0699028,10.0712142 25.2424298,9.9454133 25.35,9.77 L26.35,8.06 C26.4508474,7.89167215 26.4796818,7.68983202 26.43,7.5 C26.3671861,7.31157423 26.2348559,7.15420864 26.06,7.06 Z M17.25,4.24 L16.7,3.93 L16.94,3.53 L17.47,3.83 C17.3869055,3.96120009 17.3133815,4.09822219 17.25,4.24 Z M20.45,1.5 L20.91,1.5 L20.91,2.12 C20.8334109,2.11512399 20.7565891,2.11512399 20.68,2.12 C20.6034109,2.11512399 20.5265891,2.11512399 20.45,2.12 L20.45,1.5 Z M20.91,10.41 L20.45,10.41 L20.45,9.77 L20.68,9.77 L20.91,9.77 L20.91,10.41 Z M20.68,8.29 C19.7268781,8.3021685 18.8608185,7.73738902 18.4876118,6.86028792 C18.1144052,5.98318683 18.3079886,4.96752914 18.9776588,4.28919937 C19.6473291,3.61086959 20.6604159,3.4042536 21.5422394,3.76616092 C22.4240628,4.12806824 22.9999223,4.98680038 23,5.94 C23.0001048,7.22624313 21.9661383,8.27357988 20.68,8.29 Z M23.89,3.83 L24.42,3.53 L24.66,3.93 L24.11,4.24 C24.0505914,4.09630626 23.9768875,3.95894896 23.89,3.83 Z" id="Shape" fill="#8BA7B9" fill-rule="nonzero"></path>
                </g>
            </g>
        </g>
    </g>
</svg>