<svg height="46" viewBox="0 0 39 46" width="39" xmlns="http://www.w3.org/2000/svg" xmlns:xlink="http://www.w3.org/1999/xlink"><defs><path id="a" d="m20.7505766 19.1850924c-.0293719.0000981-.0587437.0001472-.0881156.0001472-2.4636897 0-4.9273795-.3452817-7.3910692-1.0358449-.0500047-.0140162-.101542-.0217401-.1534338-.0229952-.3469055-.0083909-.6348847.2679222-.6432195.6171626l-.2160908 9.0543444c-.0519075 2.174998.8659303 4.259206 2.5017514 5.6809281.2047333.1779374.4053996.3489944.601999.5131711h-13.7238207v-10.5841553c0-3.7761543 2.11776005-7.061265 5.23851925-8.7486531 1.3008785 1.0790788 2.96974684 1.7274808 4.78957445 1.7274808 1.8198276 0 3.488696-.648402 4.7895745-1.7274808 1.8731364 1.012801 3.3849304 2.6012005 4.294331 4.5258951zm-9.0839055-4.6435655c-3.46147701 0-6.26755856-2.815062-6.26755856-6.28761701 0-3.47255498 2.80608155-6.28761701 6.26755856-6.28761701 3.461477 0 6.2675586 2.81506203 6.2675586 6.28761701 0 3.47255501-2.8060816 6.28761701-6.2675586 6.28761701zm2.9370077 5.3674691c2.1179087.5934528 4.2358174.8901792 6.3537261.8901792 2.1179081 0 4.2358161-.2967262 6.3537241-.8901786.2873748-.0805257.5852007.0886531.6652123.3778702.0119685.0432625.0185641.0878508.0196358.1327458l.1857587 7.7810732c.0446222 1.869139-.7443963 3.6602553-2.1506286 4.8820477-2.2758051 1.9773129-3.9670391 2.9659694-5.0737023 2.9659694-1.1066631 0-2.7978972-.9886565-5.0737023-2.9659695-1.4062322-1.2217924-2.1952506-3.0129087-2.1506284-4.8820476l.1857623-7.7810772c.007165-.3001285.254726-.5375851.5529431-.5303741.0446087.0010786.0889127.0077164.1318992.0197615zm6.5011981 10.299694 2.7342807 1.1389908-.2249118-2.9849785 1.9147901-2.2810435-2.8732837-.7058273-1.5508753-2.5487532-1.5508752 2.5487532-2.8732837.7058273 1.9147901 2.2810435-.2249118 2.9849785z"/><mask id="b" fill="#fff"><use fill="#fff" fill-rule="evenodd" xlink:href="#a"/></mask></defs><g fill="none" fill-rule="evenodd" transform="translate(4.714422 1.779027)"><use fill="#d8d8d8" xlink:href="#a"/><g fill="#9391ff" mask="url(#b)"><path d="m0 0h41.954421v41.954421h-41.954421z" transform="translate(-9.680715 -3.106743)"/></g></g></svg>