
<svg width="2047px" height="507px" viewBox="0 0 2047 507" version="1.1" xmlns="http://www.w3.org/2000/svg" xmlns:xlink="http://www.w3.org/1999/xlink">
    <g id="🧩-Symbols" stroke="none" stroke-width="1" fill="none" fill-rule="evenodd" opacity="0.03">
        <g id="bg/blobs/dark" transform="translate(-25.000000, 133.000000)" fill="#FFFFFF">
            <g id="Group" transform="translate(25.000000, -168.000000)">
                <circle id="Oval" cx="102.5" cy="246.5" r="41.5"></circle>
                <path d="M291.94002,354.571787 C264.714209,356.572639 245.03259,363.492331 232.895164,375.330865 C220.27726,387.638045 212.549284,409.607305 204.999208,439.092837 C204.999736,439.228496 205,439.364217 205,439.5 C205,456.272134 200.971637,472.103394 193.829671,486.07902 C191.500046,496.048642 189.013397,506.512099 186.270927,517.424401 C181.485465,536.465778 174.526968,537.471179 165.395437,520.440604 C148.031762,533.952586 126.205668,542 102.5,542 C45.8908131,542 0,496.109187 0,439.5 C0,382.890813 45.8908131,337 102.5,337 C106.068952,337 109.595302,337.182404 113.070235,337.538397 C113.053887,337.465439 113.037551,337.392462 113.021213,337.319464 C113.990215,337.511663 114.951555,337.694735 115.905233,337.86868 C118.084763,338.153369 120.242764,338.506529 122.377007,338.92593 C151.247436,343.07173 172.545409,338.19781 186.270927,324.304171 C200.828402,309.568384 207.410494,272.480488 221.200103,241.248378 C223.918891,233.88038 227.635213,226.995402 232.18522,220.757293 C238.119196,211.845108 245.224929,204.287801 254.0496,199.10196 C255.726954,198.116259 257.371512,197.377373 258.983274,196.885303 C271.244977,189.95515 285.410601,186 300.5,186 C347.168061,186 385,223.831939 385,270.5 C385,317.168061 347.168061,355 300.5,355 C297.610505,355 294.754884,354.854968 291.94002,354.571787 Z" id="Combined-Shape"></path>
                <circle id="Oval-Copy-3" cx="472.5" cy="447.5" r="84.5"></circle>
                <circle id="Oval-Copy-4" cx="533.5" cy="185.5" r="60.5"></circle>
                <circle id="Oval-Copy-9" transform="translate(1555.500000, 246.500000) scale(-1, -1) translate(-1555.500000, -246.500000) " cx="1555.5" cy="246.5" r="41.5"></circle>
                <path d="M1744.94002,354.571787 C1717.71421,356.572639 1698.03259,363.492331 1685.89516,375.330865 C1673.27726,387.638045 1665.54928,409.607305 1657.99921,439.092837 C1657.99974,439.228496 1658,439.364217 1658,439.5 C1658,456.272134 1653.97164,472.103394 1646.82967,486.07902 C1644.50005,496.048642 1642.0134,506.512099 1639.27093,517.424401 C1634.48547,536.465778 1627.52697,537.471179 1618.39544,520.440604 C1601.03176,533.952586 1579.20567,542 1555.5,542 C1498.89081,542 1453,496.109187 1453,439.5 C1453,382.890813 1498.89081,337 1555.5,337 C1559.06895,337 1562.5953,337.182404 1566.07024,337.538397 C1566.05389,337.465439 1566.03755,337.392462 1566.02121,337.319464 C1566.99021,337.511663 1567.95155,337.694735 1568.90523,337.86868 C1571.08476,338.153369 1573.24276,338.506529 1575.37701,338.92593 C1604.24744,343.07173 1625.54541,338.19781 1639.27093,324.304171 C1653.8284,309.568384 1660.41049,272.480488 1674.2001,241.248378 C1676.91889,233.88038 1680.63521,226.995402 1685.18522,220.757293 C1691.1192,211.845108 1698.22493,204.287801 1707.0496,199.10196 C1708.72695,198.116259 1710.37151,197.377373 1711.98327,196.885303 C1724.24498,189.95515 1738.4106,186 1753.5,186 C1800.16806,186 1838,223.831939 1838,270.5 C1838,317.168061 1800.16806,355 1753.5,355 C1750.61051,355 1747.75488,354.854968 1744.94002,354.571787 Z" id="Combined-Shape-Copy" transform="translate(1645.500000, 364.000000) scale(-1, 1) translate(-1645.500000, -364.000000) "></path>
                <circle id="Oval-Copy-8" transform="translate(1925.500000, 447.500000) scale(-1, -1) translate(-1925.500000, -447.500000) " cx="1925.5" cy="447.5" r="84.5"></circle>
                <circle id="Oval-Copy-7" transform="translate(1986.500000, 185.500000) scale(-1, -1) translate(-1986.500000, -185.500000) " cx="1986.5" cy="185.5" r="60.5"></circle>
                <circle id="Oval-Copy-5" cx="1226.5" cy="324.5" r="93.5"></circle>
                <path d="M1123.26797,149.722765 L1202.47685,139.351827 L1129.43787,329.38903 C1104.6661,307.029834 1088.94616,287.935543 1082.27802,272.10616 C1076.70048,258.865696 1061.73712,251.815097 1037.38795,250.954363 C1031.34955,252.039634 1025.13104,252.60616 1018.78022,252.60616 C961.066465,252.60616 914.280221,205.819916 914.280221,148.10616 C914.280221,90.3924032 961.066465,43.6061596 1018.78022,43.6061596 C1076.49398,43.6061596 1123.28022,90.3924032 1123.28022,148.10616 C1123.28022,148.645996 1123.27613,149.184876 1123.26797,149.72277 Z" id="Combined-Shape" transform="translate(1058.378535, 186.497595) rotate(-69.000000) translate(-1058.378535, -186.497595) "></path>
            </g>
        </g>
    </g>
</svg>