<svg width="756" height="756" xmlns="http://www.w3.org/2000/svg" xmlns:xlink="http://www.w3.org/1999/xlink"><defs><path id="a" d="M0 0h756v756H0z"/></defs><g fill="none" fill-rule="evenodd"><mask id="b" fill="#fff"><use xlink:href="#a"/></mask><g opacity=".02" mask="url(#b)" fill="#FFF"><g transform="translate(-186 -261)"><circle cx="153.75" cy="368.75" r="62.25"/><path d="M437.91003 530.857681c-40.838717 3.001277-70.361145 13.380816-88.567284 31.138617-33.155594 32.339114-43.595219 127.233426-47.553572 140.09151-.14997.487153-.4338.734421-.851491.741804C281.829109 766.004311 223.160989 812 153.75 812 68.8362197 812 0 743.16378 0 658.25S68.8362197 504.5 153.75 504.5c5.399881 0 10.734745.278374 15.991023.821555-.069707-.11407-.139442-.228189-.209204-.342358 1.453503.288298 2.895513.562906 4.32603.823824 3.269295.427033 6.506297.956772 9.707662 1.585874 43.305643 6.2187 75.252602-1.09218 95.840879-21.932638 21.836213-22.103681 31.709351-77.735525 52.393764-124.58369 4.078182-11.051997 9.652665-21.379463 16.477676-30.736627 8.900964-13.368278 19.559563-24.704239 32.79657-32.482999 2.516031-1.478552 4.982867-2.586881 7.40051-3.324987C406.867465 283.932725 428.115901 278 450.75 278c70.002092 0 126.75 56.747908 126.75 126.75S520.752092 531.5 450.75 531.5c-4.334242 0-8.617673-.217548-12.83997-.642319z"/><circle cx="708.75" cy="670.25" r="126.75"/><circle cx="800.25" cy="277.25" r="90.75"/><circle cx="453.5" cy="827.5" r="85.5"/></g></g></g></svg>