<svg width="128" height="128" xmlns="http://www.w3.org/2000/svg" xmlns:xlink="http://www.w3.org/1999/xlink"><defs><path d="M57.173 81.064l6.302-6.297c2.697 6.834 1.3 14.89-4.204 20.389l-10.736 10.729c-7.412 7.406-19.464 7.37-26.92-.08-7.456-7.45-7.491-19.494-.08-26.9l10.737-10.73c5.503-5.499 13.565-6.895 20.403-4.2l-6.301 6.297a11.334 11.334 0 0 0-8.702 3.3L26.936 84.3c-4.448 4.444-4.426 11.67.047 16.141 4.474 4.47 11.705 4.492 16.152.048l10.736-10.73a11.318 11.318 0 0 0 3.302-8.695zm13.142-34.712l-6.302 6.298c-2.697-6.834-1.3-14.89 4.204-20.39l10.736-10.728c7.412-7.407 19.464-7.371 26.92.08 7.456 7.45 7.491 19.494.08 26.9l-10.737 10.73c-5.503 5.498-13.565 6.895-20.403 4.2l6.301-6.297a11.334 11.334 0 0 0 8.702-3.3l10.736-10.729c4.447-4.444 4.426-11.67-.047-16.14-4.474-4.47-11.705-4.492-16.152-.048L73.617 37.657a11.318 11.318 0 0 0-3.302 8.695zM48.65 73.477l26.163-26.163a4 4 0 0 1 5.656 5.657L54.307 79.134a4 4 0 0 1-5.657-5.657z" id="a"/></defs><g fill="none" fill-rule="evenodd"><mask id="b" fill="#fff"><use xlink:href="#a"/></mask><use fill="#D8D8D8" xlink:href="#a"/><g mask="url(#b)" fill="#7BD5C1"><path d="M0 0h128.021v128.021H0z"/></g></g></svg>
