<svg height="19" viewBox="0 0 19 19" width="19" xmlns="http://www.w3.org/2000/svg" xmlns:xlink="http://www.w3.org/1999/xlink"><defs><path id="a" d="m0 0h19v19h-19z"/><filter id="b" height="142.1%" width="142.1%" x="-21.1%" y="-21.1%"><feGaussianBlur in="SourceAlpha" result="shadowBlurInner1" stdDeviation="3"/><feOffset dx="2" dy="2" in="shadowBlurInner1" result="shadowOffsetInner1"/><feComposite in="shadowOffsetInner1" in2="SourceAlpha" k2="-1" k3="1" operator="arithmetic" result="shadowInnerInner1"/><feColorMatrix in="shadowInnerInner1" type="matrix" values="0 0 0 0 0   0 0 0 0 0   0 0 0 0 0  0 0 0 0.147220335 0"/></filter></defs><g fill="none" fill-rule="evenodd"><use fill="#6461ff" fill-rule="evenodd" xlink:href="#a"/><use fill="#000" filter="url(#b)" xlink:href="#a"/><path d="m17.1889529 3.73694892.132834.13656298c.3775655.38816474.3775655 1.00633977 0 1.39450451l-9.72010962 9.99297709c-.38508179.3958919-1.01818612.4046553-1.4140781.0195735-.0072805-.0070816-.01445268-.0142738-.02151406-.0215741l-3.49170081-3.6097959c-.37573004-.3884379-.37487069-1.0051148.00194047-1.392504l.13181137-.1355116c.38508178-.39589202 1.01818611-.40465541 1.4140781-.0195736.00758251.0073754.01504753.0148708.02239223.0224831l2.63824351 2.7343808 8.87245121-9.12152278c.3850818-.39589199 1.0181861-.40465538 1.4140781-.01957359.0066145.00643391.0131396.01295906.0195736.01957359z" fill="#f2f2f2" fill-rule="nonzero"/></g></svg>