<?xml version="1.0" encoding="UTF-8"?>
<svg width="83px" height="83px" viewBox="0 0 83 83" version="1.1" xmlns="http://www.w3.org/2000/svg" xmlns:xlink="http://www.w3.org/1999/xlink">
    <!-- Generator: Sketch 52.5 (67469) - http://www.bohemiancoding.com/sketch -->
    <title>icons/check-circ</title>
    <desc>Created with Sketch.</desc>
    <defs>
        <path d="M27.9791847,36.9081169 L27.9791847,24.4436508 L20.9791847,24.4436508 L20.9791847,43.4436508 L21.2426407,43.4436508 L21.2426407,43.9081169 L60.2426407,43.9081169 L60.2426407,36.9081169 L27.9791847,36.9081169 Z M36.5,73 C16.3416066,73 0,56.6583934 0,36.5 C0,16.3416066 16.3416066,0 36.5,0 C56.6583934,0 73,16.3416066 73,36.5 C73,56.6583934 56.6583934,73 36.5,73 Z" id="path-1"></path>
        <filter x="-9.6%" y="-6.8%" width="119.2%" height="119.2%" filterUnits="objectBoundingBox" id="filter-3">
            <feOffset dx="0" dy="2" in="SourceAlpha" result="shadowOffsetOuter1"></feOffset>
            <feGaussianBlur stdDeviation="2" in="shadowOffsetOuter1" result="shadowBlurOuter1"></feGaussianBlur>
            <feColorMatrix values="0 0 0 0 0   0 0 0 0 0   0 0 0 0 0  0 0 0 0.11 0" type="matrix" in="shadowBlurOuter1"></feColorMatrix>
        </filter>
    </defs>
    <g id="icons/check-circ" stroke="none" stroke-width="1" fill="none" fill-rule="evenodd">
        <g id="color" transform="translate(41.500000, 41.500000) rotate(-45.000000) translate(-41.500000, -41.500000) translate(5.000000, 5.000000)">
            <mask id="mask-2" fill="white">
                <use xlink:href="#path-1"></use>
            </mask>
            <g id="Combined-Shape">
                <use fill="black" fill-opacity="1" filter="url(#filter-3)" xlink:href="#path-1"></use>
                <use fill="#FFFFFF" fill-rule="evenodd" xlink:href="#path-1"></use>
            </g>
            <g id="fills/light-grey" mask="url(#mask-2)" fill="#E7E7E7">
                <g transform="translate(-5.000000, -5.000000)" id="Rectangle">
                    <rect x="0" y="0" width="83" height="83"></rect>
                </g>
            </g>
        </g>
    </g>
</svg>