<svg height="128" viewBox="0 0 128 128" width="128" xmlns="http://www.w3.org/2000/svg" xmlns:xlink="http://www.w3.org/1999/xlink"><defs><path id="a" d="m63.8326111 56.21 20.6899444-20.6899444-7.6226111-7.6226111-20.6899444 20.6899444-19.601-19.601-7.6226111 7.6226111 19.601 19.601-19.601 19.601 7.6226111 7.6226111 19.601-19.601 20.6899444 20.6899444 7.6226111-7.6226111zm-47.3690833 39.7464722c-21.95137041-21.9513705-21.95137041-57.5415739 0-79.4929444 21.9513705-21.95137041 57.5415739-21.95137041 79.4929444 0 21.9513708 21.9513705 21.9513708 57.5415739 0 79.4929444-21.9513705 21.9513708-57.5415739 21.9513708-79.4929444 0z"/><mask id="b" fill="#fff"><use fill="#fff" fill-rule="evenodd" xlink:href="#a"/></mask></defs><g fill="none" fill-rule="evenodd" transform="translate(7.7 7.7)"><use fill="#fff" xlink:href="#a"/><g fill="#e7e7e7" mask="url(#b)"><path d="m0 0h128.02087v128.02087h-128.02087z" transform="translate(-7.7 -7.7)"/></g></g></svg>