<svg width="128" height="128" xmlns="http://www.w3.org/2000/svg" xmlns:xlink="http://www.w3.org/1999/xlink"><defs><path d="M23.3168761 57.7952724l29.404982 20.7457924c5.812183 4.1006093 15.2355936 4.1006093 21.0477766 0l29.6191633-20.8969013c.296276-.209029.572803-.4267155.829581-.6519051 3.884457 3.1544057 3.700511 7.9379203-.551837 10.9380355L71.5711701 90.5742093c-4.4446105 3.13576-11.650748 3.13576-16.0953586 0L23.5946206 68.0814029c-4.1483338-2.926731-4.4248608-7.5506829-.829581-10.7036866.1756287.1426208.3595743.2819113.5518365.4175561zm.2611627 17.7300759l29.404982 20.7457924c5.812183 4.1006093 15.2355935 4.1006093 21.0477765 0L103.64996 75.3742394c.38169-.2692896.730601-.5529477 1.046734-.8485065 3.332556 3.1446854 2.973512 7.6207219-1.077134 10.4785317L71.5241885 107.64818c-4.4446106 3.13576-11.6507481 3.13576-16.0953586 0l-31.881191-22.4928065c-4.0629208-2.8664704-4.4118321-7.3609906-1.0467341-10.5070851.324124.3058518.6831687.5991096 1.077134.8770599zm31.6366101-2.6812149L23.3334579 50.351327c-4.4446105-3.13576-4.4446105-8.2198316 0-11.3555916L55.4288299 16.35182c4.4446105-3.13576 11.650748-3.13576 16.0953586 0l31.8811905 22.4928065c4.444611 3.13576 4.444611 8.2198315 0 11.3555916L71.3100074 72.8441334c-4.4446105 3.1357601-11.650748 3.1357601-16.0953585 0z" id="a"/></defs><g fill="none" fill-rule="evenodd"><mask id="b" fill="#fff"><use xlink:href="#a"/></mask><use fill="#000" xlink:href="#a"/><g mask="url(#b)" fill="#E7E7E7"><path d="M0 0h128.02087v128.02087H0z"/></g></g></svg>