<svg width="128" height="128" xmlns="http://www.w3.org/2000/svg"><path d="M37.8 18h53.4c10.935 0 19.8 8.865 19.8 19.8v53.4c0 10.935-8.865 19.8-19.8 19.8H37.8C26.865 111 18 102.135 18 91.2V37.8C18 26.865 26.865 18 37.8 18zm1.8 18a3.6 3.6 0 0 0-3.6 3.6v9.66a3.6 3.6 0 0 0 3.6 3.6h9.66a3.6 3.6 0 0 0 3.6-3.6V39.6a3.6 3.6 0 0 0-3.6-3.6H39.6zm0 20.07a3.6 3.6 0 0 0-3.6 3.6v9.66a3.6 3.6 0 0 0 3.6 3.6h9.66a3.6 3.6 0 0 0 3.6-3.6v-9.66a3.6 3.6 0 0 0-3.6-3.6H39.6zM59.67 36a3.6 3.6 0 0 0-3.6 3.6v9.66a3.6 3.6 0 0 0 3.6 3.6h9.66a3.6 3.6 0 0 0 3.6-3.6V39.6a3.6 3.6 0 0 0-3.6-3.6h-9.66zm0 20.07a3.6 3.6 0 0 0-3.6 3.6v9.66a3.6 3.6 0 0 0 3.6 3.6h9.66a3.6 3.6 0 0 0 3.6-3.6v-9.66a3.6 3.6 0 0 0-3.6-3.6h-9.66zM79.74 36a3.6 3.6 0 0 0-3.6 3.6v9.66a3.6 3.6 0 0 0 3.6 3.6h9.66a3.6 3.6 0 0 0 3.6-3.6V39.6a3.6 3.6 0 0 0-3.6-3.6h-9.66zm0 20.07a3.6 3.6 0 0 0-3.6 3.6v9.66a3.6 3.6 0 0 0 3.6 3.6h9.66a3.6 3.6 0 0 0 3.6-3.6v-9.66a3.6 3.6 0 0 0-3.6-3.6h-9.66zM39.6 76.14a3.6 3.6 0 0 0-3.6 3.6v9.66a3.6 3.6 0 0 0 3.6 3.6h9.66a3.6 3.6 0 0 0 3.6-3.6v-9.66a3.6 3.6 0 0 0-3.6-3.6H39.6zm20.07 0a3.6 3.6 0 0 0-3.6 3.6v9.66a3.6 3.6 0 0 0 3.6 3.6h9.66a3.6 3.6 0 0 0 3.6-3.6v-9.66a3.6 3.6 0 0 0-3.6-3.6h-9.66zm20.07 0a3.6 3.6 0 0 0-3.6 3.6v9.66a3.6 3.6 0 0 0 3.6 3.6h9.66a3.6 3.6 0 0 0 3.6-3.6v-9.66a3.6 3.6 0 0 0-3.6-3.6h-9.66z" fill="#D8D8D8" fill-rule="evenodd"/></svg>