<svg height="128" viewBox="0 0 128 128" width="128" xmlns="http://www.w3.org/2000/svg"><g fill="none" fill-rule="evenodd"><path d="m37.7999988 18h53.4000024c10.9352378 0 19.7999988 8.8647614 19.7999988 19.7999988v53.4000024c0 10.9352378-8.864761 19.7999988-19.7999988 19.7999988h-53.4000024c-10.9352374 0-19.7999988-8.864761-19.7999988-19.7999988v-53.4000024c0-10.9352374 8.8647614-19.7999988 19.7999988-19.7999988z" fill="#594d88"/><path d="m59.6704223 76.1408451c-1.988225 0-3.5999998 1.6117748-3.5999998 3.5999998v9.6591553c0 1.988225 1.6117748 3.5999998 3.5999998 3.5999998h9.6591554c1.988225 0 3.5999998-1.6117748 3.5999998-3.5999998v-9.6591553c0-1.988225-1.6117748-3.5999998-3.5999998-3.5999998z" fill="#ad9ee2"/><path d="m79.5999998 56c-1.988225 0-3.5999998 1.6117748-3.5999998 3.5999998v9.6591553c0 1.988225 1.6117748 3.5999998 3.5999998 3.5999998h9.6591553c1.988225 0 3.5999998-1.6117748 3.5999998-3.5999998v-9.6591553c0-1.988225-1.6117748-3.5999998-3.5999998-3.5999998z" fill="#df5353"/><path d="m79.5999998 76c-1.988225 0-3.5999998 1.6117748-3.5999998 3.5999998v9.6591553c0 1.988225 1.6117748 3.5999998 3.5999998 3.5999998h9.6591553c1.988225 0 3.5999998-1.6117748 3.5999998-3.5999998v-9.6591553c0-1.988225-1.6117748-3.5999998-3.5999998-3.5999998z" fill="#d84cff"/><path d="m39.7408449 76c-1.988225 0-3.5999998 1.6117748-3.5999998 3.5999998v9.6591553c0 1.988225 1.6117748 3.5999998 3.5999998 3.5999998h9.6591553c1.988225 0 3.5999998-1.6117748 3.5999998-3.5999998v-9.6591553c0-1.988225-1.6117748-3.5999998-3.5999998-3.5999998z" fill="#724cff"/><path d="m59.5999998 36c-1.988225 0-3.5999998 1.6117748-3.5999998 3.5999998v9.6591553c0 1.988225 1.6117748 3.5999998 3.5999998 3.5999998h9.6591553c1.988225 0 3.5999998-1.6117748 3.5999998-3.5999998v-9.6591553c0-1.988225-1.6117748-3.5999998-3.5999998-3.5999998z" fill="#df8039"/><path d="m39.5999998 56c-1.988225 0-3.5999998 1.6117748-3.5999998 3.5999998v9.6591553c0 1.988225 1.6117748 3.5999998 3.5999998 3.5999998h9.6591553c1.988225 0 3.5999998-1.6117748 3.5999998-3.5999998v-9.6591553c0-1.988225-1.6117748-3.5999998-3.5999998-3.5999998z" fill="#8fd154"/><path d="m39.5999998 36c-1.988225 0-3.5999998 1.6117748-3.5999998 3.5999998v9.6591553c0 1.988225 1.6117748 3.5999998 3.5999998 3.5999998h9.6591553c1.988225 0 3.5999998-1.6117748 3.5999998-3.5999998v-9.6591553c0-1.988225-1.6117748-3.5999998-3.5999998-3.5999998z" fill="#fbc23c"/><path d="m79.5999998 36c-1.988225 0-3.5999998 1.6117748-3.5999998 3.5999998v9.6591553c0 1.988225 1.6117748 3.5999998 3.5999998 3.5999998h9.6591553c1.988225 0 3.5999998-1.6117748 3.5999998-3.5999998v-9.6591553c0-1.988225-1.6117748-3.5999998-3.5999998-3.5999998z" fill="#d83535"/><path d="m39.5999998 76c-1.988225 0-3.5999998 1.6117748-3.5999998 3.5999998v9.6591553c0 1.988225 1.6117748 3.5999998 3.5999998 3.5999998h9.6591553c1.988225 0 3.5999998-1.6117748 3.5999998-3.5999998v-9.6591553c0-1.988225-1.6117748-3.5999998-3.5999998-3.5999998z" fill="#7584ff"/></g></svg>