<svg width="6" height="25" xmlns="http://www.w3.org/2000/svg"><path d="M3 25c-.42 0-.81-.084-1.173-.251a3.177 3.177 0 0 1-.956-.674 3.007 3.007 0 0 1-.641-1.004A3.419 3.419 0 0 1 0 21.803c0-.44.077-.854.23-1.242.153-.387.367-.726.641-1.017.274-.29.593-.52.956-.687A2.768 2.768 0 0 1 3 18.607c.42 0 .81.083 1.173.25.363.167.682.396.956.687.274.29.488.63.641 1.017.153.388.23.802.23 1.242 0 .458-.077.88-.23 1.268a3.007 3.007 0 0 1-.641 1.004 3.177 3.177 0 0 1-.956.674A2.768 2.768 0 0 1 3 25zM.097 0h5.806v14.772H.097V0z" fill="#FFF" fill-rule="evenodd"/></svg>