<svg height="128" viewBox="0 0 128 128" width="128" xmlns="http://www.w3.org/2000/svg" xmlns:xlink="http://www.w3.org/1999/xlink"><defs><path id="a" d="m50.1634008 43.9788375c-8.9605303 3.3074523-17.4408213 9.9435295-25.48115 20.0211625 12.0691673 15.1273216 25.129674 22.5 39.3177492 22.5s27.2485819-7.3726784 39.317749-22.5c-8.0403285-10.077633-16.5206195-16.7137102-25.4811498-20.0211625 3.2015688 3.4007822 5.1634008 7.9818672 5.1634008 13.0211625 0 10.4934102-8.5065898 19-19 19s-19-8.5065898-19-19c0-5.0392953 1.961832-9.6203803 5.1634053-13.0211642zm13.8365992 51.5211625c-18.1317931 0-34.3877039-9.7535464-48.6065814-28.8087975l-2.008154-2.6912025 2.008154-2.6912025c14.2188775-19.0552511 30.4747883-28.8087975 48.6065814-28.8087975s34.3877039 9.7535464 48.606581 28.8087975l2.008154 2.6912025-2.008154 2.6912025c-14.2188771 19.0552511-30.4747879 28.8087975-48.606581 28.8087975z"/><mask id="b" fill="#fff"><use fill="#fff" fill-rule="evenodd" xlink:href="#a"/></mask></defs><g fill="none" fill-rule="evenodd"><use fill="#979797" fill-rule="nonzero" xlink:href="#a"/><g fill="#e7e7e7" mask="url(#b)"><path d="m0 0h128v128h-128z"/></g></g></svg>