
<svg width="21px" height="13px" viewBox="0 0 21 13" version="1.1" xmlns="http://www.w3.org/2000/svg" xmlns:xlink="http://www.w3.org/1999/xlink">
    <defs>
        <path d="M9.79754008,8.58961639 C8.04743618,9.23560305 6.39112907,10.531712 4.8207521,12.5 C7.17801134,15.454555 9.72889156,16.8945312 12.5,16.8945312 C15.2711084,16.8945312 17.8219887,15.454555 20.1792479,12.5 C18.6088709,10.531712 16.9525638,9.23560305 15.2024599,8.58961639 C15.8277672,9.25383199 16.2109375,10.1485751 16.2109375,11.1328125 C16.2109375,13.1823067 14.5494942,14.84375 12.5,14.84375 C10.4505058,14.84375 8.7890625,13.1823067 8.7890625,11.1328125 C8.7890625,10.1485751 9.1722328,9.25383199 9.79754008,8.58961639 Z M12.5,18.6523438 C8.95863415,18.6523438 5.78365159,16.7473542 3.00652707,13.0256255 L2.6143095,12.5 L3.00652707,11.9743745 C5.78365159,8.25264579 8.95863415,6.34765625 12.5,6.34765625 C16.0413658,6.34765625 19.2163484,8.25264579 21.9934729,11.9743745 L22.3856905,12.5 L21.9934729,13.0256255 C19.2163484,16.7473542 16.0413658,18.6523438 12.5,18.6523438 Z" id="path-1"></path>
    </defs>
    <g id="🚀-Launcher" stroke="none" stroke-width="1" fill="none" fill-rule="evenodd">
        <g id="screens/users-add" transform="translate(-455.000000, -477.000000)">
            <g id="Group-9" transform="translate(20.000000, 79.000000)">
                <g id="icons/eye" transform="translate(433.000000, 392.000000)">
                    <mask id="mask-2" fill="white">
                        <use xlink:href="#path-1"></use>
                    </mask>
                    <use id="Oval" fill="#979797" fill-rule="nonzero" xlink:href="#path-1"></use>
                    <g id="fills/mercury" mask="url(#mask-2)" fill="#848484" fill-rule="evenodd">
                        <rect id="Rectangle" x="0" y="0" width="25.1352163" height="25.1352163"></rect>
                    </g>
                </g>
            </g>
        </g>
    </g>
</svg>