<?xml version="1.0" encoding="UTF-8"?>
<svg width="128px" height="128px" viewBox="0 0 128 128" version="1.1" xmlns="http://www.w3.org/2000/svg" xmlns:xlink="http://www.w3.org/1999/xlink">
    <!-- Generator: Sketch 52.5 (67469) - http://www.bohemiancoding.com/sketch -->
    <title>icons/help--color-venus</title>
    <desc>Created with Sketch.</desc>
    <g id="icons/help--color-venus" stroke="none" stroke-width="1" fill="none" fill-rule="evenodd">
        <circle id="Oval" fill="#FBC23C" cx="63.91" cy="63.91" r="56.21"></circle>
        <path d="M62.3452632,78 C60.557184,78 59.1645664,77.4109553 58.1673684,76.2328482 C57.1701705,75.0547412 56.6715789,73.3915561 56.6715789,71.2432432 C56.6715789,67.9861237 57.2905201,65.2661232 58.5284211,63.0831601 C59.766322,60.900197 61.485603,58.6652921 63.6863158,56.3783784 C65.2680781,54.645868 66.454382,53.1559314 67.2452632,51.9085239 C68.0361443,50.6611164 68.4315789,49.2751289 68.4315789,47.7505198 C68.4315789,46.2259106 67.881409,45.0131715 66.7810526,44.1122661 C65.6806963,43.2113607 64.1677289,42.7609148 62.2421053,42.7609148 C60.660343,42.7609148 59.0957972,43.0554371 57.5484211,43.6444906 C56.0010449,44.2335442 54.264571,45.0824615 52.3389474,46.1912682 L49.8631579,47.4386694 C47.5249006,48.7553773 45.6336914,49.4137214 44.1894737,49.4137214 C42.4701668,49.4137214 41.0087779,48.6687531 39.8052632,47.1787942 C38.6017484,45.6888352 38,43.8697266 38,41.7214137 C38,40.266105 38.2578922,39.0533659 38.7736842,38.0831601 C39.2894763,37.1129543 40.131924,36.1774127 41.3010526,35.2765073 C44.3958049,32.9895936 47.9203311,31.2051346 51.8747368,29.9230769 C55.8291426,28.6410192 59.8006818,28 63.7894737,28 C68.2596715,28 72.2484035,28.779618 75.7557895,30.3388773 C79.2631754,31.8981367 82.0140251,34.0464174 84.0084211,36.7837838 C86.002817,39.5211502 87,42.6222973 87,46.0873181 C87,48.6514335 86.4670229,51.0076123 85.4010526,53.1559252 C84.3350824,55.304238 83.0456216,57.1406715 81.5326316,58.6652807 C80.0196416,60.1898898 78.0596612,62.0263233 75.6526316,64.1746362 C73.3831465,66.0457474 71.6466727,67.6569579 70.4431579,69.008316 C69.2396431,70.3596741 68.4659666,71.7629865 68.1221053,73.2182952 C67.8470162,74.7429044 67.1764966,75.9209938 66.1105263,76.7525988 C65.0445561,77.5842037 63.7894809,78 62.3452632,78 Z" id="Path" fill="#FFFFFF"></path>
        <path d="M62.9481865,103 C60.1157026,103 57.7495777,102.03781 55.8497409,100.113402 C53.9499041,98.1889938 53,95.8178835 53,93 C53,90.1821165 53.9499041,87.8110062 55.8497409,85.8865979 C57.7495777,83.9621897 60.1157026,83 62.9481865,83 C65.8497554,83 68.2504223,83.9621897 70.1502591,85.8865979 C72.0500959,87.8110062 73,90.1821165 73,93 C73,95.8178835 72.0500959,98.1889938 70.1502591,100.113402 C68.2504223,102.03781 65.8497554,103 62.9481865,103 Z" id="Path" fill="#FFFFFF"></path>
    </g>
</svg>