<svg width="43" height="32" xmlns="http://www.w3.org/2000/svg" xmlns:xlink="http://www.w3.org/1999/xlink"><defs><path d="M25.827 20.308a2.457 2.457 0 1 0-4.815 0h-3.98v-7.211a2.457 2.457 0 0 1 0-4.903V3.276h13.103v4.962a2.457 2.457 0 1 0 0 4.815v7.255h-4.308zM17.033 0h13.102v2.293H17.033V0zM12.07 20.308a2.457 2.457 0 1 0-4.815 0H2.948v-7.255a2.457 2.457 0 1 1 0-4.815V3.276H16.05v4.367a3.113 3.113 0 0 0 0 6.005v6.66h-3.98zM2.948 0H16.05v2.293H2.948V0z" id="a"/></defs><g transform="translate(6.24 3.81)" fill="none" fill-rule="evenodd"><mask id="b" fill="#fff"><use xlink:href="#a"/></mask><use fill="#D8D8D8" xlink:href="#a"/><g mask="url(#b)" fill="#E7E7E7"><path d="M-5.24-10.81H36.8v42.043H-5.24z"/></g></g></svg>