<svg viewBox="0 0 297.92 297.91" xmlns="http://www.w3.org/2000/svg"><path d="m283.38 114a50 50 0 0 0 -5.75-4.94l-.75-.52c-.43-.3-.85-.61-1.29-.9s-.95-.6-1.42-.89l-.66-.41c-.59-.35-1.19-.68-1.79-1l-.35-.19a49.6 49.6 0 0 0 -23-5.68 49.71 49.71 0 0 1 -49.67-49.76 49.62 49.62 0 1 0 -49.7 49.53 49.71 49.71 0 0 1 49.67 49.76 49.71 49.71 0 0 1 -49.76 49.67 49.62 49.62 0 0 1 -49.66-49.67 49.62 49.62 0 1 0 -49.62 49.62 49.62 49.62 0 0 1 49.62 49.62 49.71 49.71 0 0 0 99.43 0 49.62 49.62 0 0 1 49.62-49.62 49.56 49.56 0 0 0 25.19-6.86c.66-.39 1.31-.8 2-1.22l.14-.09c.6-.4 1.2-.82 1.78-1.24l.26-.18c.52-.38 1-.79 1.55-1.2l.44-.34c.48-.39.94-.8 1.41-1.21l.51-.44q.9-.81 1.77-1.68l.09-.08a49.84 49.84 0 0 0 5.8-7q.56-.81 1.08-1.64a49.61 49.61 0 0 0 -6.94-61.44z" fill="#fff"/></svg>