<?xml version="1.0" encoding="UTF-8"?>
<svg width="83px" height="83px" viewBox="0 0 83 83" version="1.1" xmlns="http://www.w3.org/2000/svg" xmlns:xlink="http://www.w3.org/1999/xlink">
    <!-- Generator: Sketch 52.5 (67469) - http://www.bohemiancoding.com/sketch -->
    <title>icons/logout</title>
    <desc>Created with Sketch.</desc>
    <defs>
        <path d="M22.954891,68 L1.65994457,58.5326021 C0.652529892,58.0847214 4.26325641e-14,57.0619008 4.26325641e-14,55.93069 L4.26325641e-14,12.06931 C4.26325641e-14,10.9380992 0.652529892,9.91527864 1.65994457,9.46739793 L22.954891,-4.26325641e-14 L22.954891,10.3893568 L30.2272937,10.3893568 C31.7449367,10.3893568 32.9752295,11.6579405 32.9752295,13.2228178 L32.9752295,27.3346095 C32.9752295,27.8868943 32.5275142,28.3346095 31.9752295,28.3346095 L30.3113151,28.3346095 C29.7590303,28.3346095 29.3113151,27.8868943 29.3113151,27.3346095 L29.3113151,14.1673048 L22.954891,14.1673048 L22.954891,53.8357581 L29.3113151,53.8357581 L29.3113151,40.6684533 C29.3113151,40.1161686 29.7590303,39.6684533 30.3113151,39.6684533 L31.9752295,39.6684533 C32.5275142,39.6684533 32.9752295,40.1161686 32.9752295,40.6684533 L32.9752295,54.7802451 C32.9752295,56.3451223 31.7449367,57.613706 30.2272937,57.613706 L22.954891,57.613706 L22.954891,68 Z M40.4602153,35.8905054 L26.6474007,35.8905054 C26.095116,35.8905054 25.6474007,35.4427901 25.6474007,34.8905054 L25.6474007,33.1125574 C25.6474007,32.5602727 26.095116,32.1125574 26.6474007,32.1125574 L40.4602153,32.1125574 L36.0840272,27.6001674 C35.7078374,27.2122693 35.7078374,26.5956857 36.0840272,26.2077876 L37.284267,24.9701923 C37.668762,24.5737304 38.3018527,24.5640294 38.6983145,24.9485244 C38.7048146,24.9548283 38.7112288,24.9612202 38.7175553,24.9676983 L46.7017116,33.1432272 C47.0801929,33.5307804 47.081269,34.149233 46.7041387,34.5381009 L39.0318017,42.4492273 C38.6473066,42.8456892 38.014216,42.8553902 37.6177541,42.4708951 C37.6104213,42.4637836 37.6031978,42.4565602 37.5960863,42.4492273 L36.4168359,41.2332746 C36.0333261,40.8378287 36.0418528,40.2066964 36.4359059,39.8217556 L40.4602153,35.8905054 Z" id="path-1"></path>
    </defs>
    <g id="icons/logout" stroke="none" stroke-width="1" fill="none" fill-rule="evenodd">
        <g id="color" transform="translate(20.000000, 8.000000)">
            <mask id="mask-2" fill="white">
                <use xlink:href="#path-1"></use>
            </mask>
            <use id="Mask" fill="#4A4A4A" fill-rule="nonzero" xlink:href="#path-1"></use>
            <g id="fills/light-grey" mask="url(#mask-2)" fill="#E7E7E7">
                <g transform="translate(-17.000000, -5.000000)" id="Rectangle">
                    <rect x="0" y="0" width="77" height="78"></rect>
                </g>
            </g>
        </g>
    </g>
</svg>