<svg width="256" height="256" xmlns="http://www.w3.org/2000/svg" xmlns:xlink="http://www.w3.org/1999/xlink"><defs><path d="M188.963 76.003a33.339 33.339 0 0 0-3.834-3.293l-.5-.347c-.287-.2-.567-.407-.86-.6-.294-.194-.634-.4-.948-.594l-.44-.273a30.083 30.083 0 0 0-1.193-.667l-.234-.126a33.08 33.08 0 0 0-15.336-3.787 33.15 33.15 0 0 1-23.434-9.728 33.138 33.138 0 0 1-9.687-23.446 33.08 33.08 0 0 0-20.372-30.6A33.092 33.092 0 0 0 76.053 9.65a33.076 33.076 0 0 0-7.234 36.04 33.088 33.088 0 0 0 30.537 20.473 33.15 33.15 0 0 1 23.433 9.728 33.138 33.138 0 0 1 9.688 23.446 33.138 33.138 0 0 1-9.73 23.429 33.15 33.15 0 0 1-23.451 9.685 33.09 33.09 0 0 1-23.426-9.691 33.078 33.078 0 0 1-9.688-23.423c0-18.27-14.814-33.081-33.088-33.081-18.273 0-33.087 14.81-33.087 33.08 0 18.27 14.814 33.082 33.087 33.082 18.274 0 33.088 14.81 33.088 33.08 0 18.306 14.842 33.145 33.15 33.145 18.31 0 33.151-14.84 33.151-33.144 0-18.27 14.814-33.081 33.088-33.081a33.053 33.053 0 0 0 16.797-4.574c.44-.26.874-.533 1.334-.813l.093-.06c.4-.267.8-.547 1.187-.827l.173-.12c.347-.253.667-.526 1.034-.8l.293-.226c.32-.26.627-.534.94-.807l.34-.293c.4-.36.794-.734 1.18-1.12l.06-.054a33.229 33.229 0 0 0 4.589-5.76c8.197-13.063 6.277-30.056-4.628-40.961z" id="a"/></defs><g transform="translate(28.679 28.679)" fill="none" fill-rule="evenodd"><mask id="b" fill="#fff"><use xlink:href="#a"/></mask><use fill="#000" xlink:href="#a"/><g mask="url(#b)" fill="#FFF"><path d="M-3.679-3.679h206v206h-206z"/></g></g></svg>