<svg width="128" height="128" xmlns="http://www.w3.org/2000/svg" xmlns:xlink="http://www.w3.org/1999/xlink"><defs><path d="M35.35 104.72L2.557 90.14C1.005 89.45 0 87.875 0 86.133V18.587c0-1.742 1.005-3.317 2.556-4.007L35.351 0v16H46.55c2.337 0 4.232 1.953 4.232 4.363v21.732c0 .85-.69 1.54-1.54 1.54h-2.563c-.85 0-1.54-.69-1.54-1.54V21.818h-9.788v61.09h9.788V62.628c0-.85.69-1.54 1.54-1.54h2.563c.85 0 1.54.69 1.54 1.54v21.733c0 2.41-1.895 4.363-4.232 4.363h-11.2v15.995zM62.31 55.271H41.037c-.85 0-1.54-.69-1.54-1.54v-2.738c0-.85.69-1.54 1.54-1.54h21.272l-6.74-6.949a1.54 1.54 0 0 1 0-2.144l1.849-1.906a1.54 1.54 0 0 1 2.207-.004l12.296 12.59a1.54 1.54 0 0 1 .003 2.149L60.11 65.372a1.54 1.54 0 0 1-2.211 0l-1.816-1.873a1.54 1.54 0 0 1 .03-2.173l6.197-6.055z" id="a"/></defs><g transform="translate(30.8 12.32)" fill="none" fill-rule="evenodd"><mask id="b" fill="#fff"><use xlink:href="#a"/></mask><use fill="#4A4A4A" fill-rule="nonzero" xlink:href="#a"/><g mask="url(#b)" fill="#E7E7E7"><path d="M-30.8-12.32H97.221v128.021H-30.8z"/></g></g></svg>