<svg width="41" height="42" xmlns="http://www.w3.org/2000/svg"><g fill="none" fill-rule="evenodd"><path d="M24.677 4.8a8.773 8.773 0 0 0-.332 2.4c0 4.64 3.59 8.4 8.019 8.4.796 0 1.565-.122 2.29-.348V30c0 3.314-2.564 6-5.727 6H10.6c-3.163 0-5.727-2.686-5.727-6V10.8c0-3.314 2.564-6 5.727-6h14.077zm7.687 7.2c-2.53 0-4.582-2.149-4.582-4.8s2.051-4.8 4.582-4.8c2.53 0 4.581 2.149 4.581 4.8s-2.05 4.8-4.581 4.8z" fill="#FBC23C"/><text font-family="Helvetica" font-size="16.8" letter-spacing="-.48" fill="#FFF" transform="translate(-2)"><tspan x="6.3" y="28">1</tspan> <tspan x="15.163" y="28">2</tspan></text></g></svg>