<svg height="128" viewBox="0 0 128 128" width="128" xmlns="http://www.w3.org/2000/svg"><path d="m67.2697682 97.7347781h-34.2245814c-3.8659933 0-7-3.1340067-7-7 0-3.8659932 3.1340067-7 7-7v-30c0-13.9702287 9.8783594-25.633243 23.0311243-28.385089-.0205808-.2021703-.0311243-.4073093-.0311243-.614911 0-3.3137085 2.6862915-6 6-6s6 2.6862915 6 6c0 .2076017-.0105436.4127407-.0311244.614911 13.152765 2.751846 23.0311244 14.4148603 23.0311244 28.385089v30c3.8659932 0 7 3.1340068 7 7 0 3.8659933-3.1340068 7-7 7h-8.6716672zm16.5076584 3.9999999c.029245.295296.0442173.594788.0442173.897778 0 4.970562-4.0294372 9-9 9-4.9705627 0-9-4.029438-9-9 0-.30299.0149723-.602482.0442173-.897778z" fill="#fbc23c" fill-rule="evenodd" transform="matrix(.93969262 .34202014 -.34202014 .93969262 26.03591 -17.289648)"/></svg>