<?xml version="1.0" encoding="UTF-8"?>
<svg width="128px" height="128px" viewBox="0 0 128 128" version="1.1" xmlns="http://www.w3.org/2000/svg" xmlns:xlink="http://www.w3.org/1999/xlink">
    <!-- Generator: Sketch 52.5 (67469) - http://www.bohemiancoding.com/sketch -->
    <title>icons/refresh</title>
    <desc>Created with Sketch.</desc>
    <defs>
        <path d="M55.456682,19.1021549 C69.5122808,16.5306094 84.471716,20.6164635 95.2478712,31.3926187 C112.788359,48.9331069 112.603231,77.5569854 94.8343761,95.3258407 C77.0655209,113.094696 48.4416424,113.279824 30.9011542,95.7393358 C17.2041958,82.0423774 14.3157582,61.587118 22.1682801,44.8196191 L33.9642319,50.5145621 C28.5350166,62.3569037 30.6195842,76.7300427 40.2650157,86.3754742 C52.6999862,98.8104447 72.9926811,98.6788203 85.5900185,86.081483 C98.1873558,73.4841457 98.3189802,53.1914507 85.8840097,40.7564802 C78.5307167,33.4031872 68.4297128,30.4442158 58.7970852,31.8587056 L61.0621429,40.5086562 L30.1022997,32.7545545 L53.129546,10.2151356 L55.456682,19.1021549 Z" id="path-1"></path>
    </defs>
    <g id="icons/refresh" stroke="none" stroke-width="1" fill="none" fill-rule="evenodd">
        <mask id="mask-2" fill="white">
            <use xlink:href="#path-1"></use>
        </mask>
        <use id="Path" fill="#979797" fill-rule="nonzero" xlink:href="#path-1"></use>
        <g id="fills/comet" mask="url(#mask-2)" fill="#E7E7E7">
            <g transform="translate(0.000000, -0.000000)" id="Rectangle">
                <rect x="0" y="0" width="128.02087" height="128.02087"></rect>
            </g>
        </g>
    </g>
</svg>