<svg height="128" viewBox="0 0 128 128" width="128" xmlns="http://www.w3.org/2000/svg" xmlns:xlink="http://www.w3.org/1999/xlink"><defs><path id="a" d="m56.9980705 64.3817372c-13.8895805 10.6880371-33.8883103 9.6694673-46.6134871-3.0557094-13.83237043-13.8323704-13.83237043-36.259074 0-50.0914444 13.8323704-13.83237043 36.259074-13.83237043 50.0914444 0 12.7251767 12.7251768 13.7437465 32.7239066 3.0557094 46.6134871l29.6126239 29.6126239-6.5336667 6.5336667zm-4.1446538-10.6783205c9.6225185-9.6225186 9.6225185-25.2237037 0-34.8462222-9.6225186-9.62251856-25.2237037-9.62251856-34.8462222 0-9.62251856 9.6225185-9.62251856 25.2237036 0 34.8462222 9.6225185 9.6225185 25.2237036 9.6225185 34.8462222 0z"/><mask id="b" fill="#fff"><use fill="#fff" fill-rule="evenodd" xlink:href="#a"/></mask></defs><g fill="none" fill-rule="evenodd" transform="translate(20 18)"><use fill="#d8d8d8" xlink:href="#a"/><g fill="#e7e7e7" mask="url(#b)"><path d="m0 0h128.02087v128.02087h-128.02087z" transform="translate(-20 -18)"/></g></g></svg>