<svg width="83" height="83" xmlns="http://www.w3.org/2000/svg" xmlns:xlink="http://www.w3.org/1999/xlink"><defs><path d="M24.12 4.667A8.168 8.168 0 0 1 31.5 0a8.168 8.168 0 0 1 7.38 4.667H59.5a3.5 3.5 0 0 1 0 7H38.88a8.168 8.168 0 0 1-7.38 4.666 8.168 8.168 0 0 1-7.38-4.666H3.5a3.5 3.5 0 0 1 0-7h20.62zM42.785 28a8.168 8.168 0 0 1 7.38-4.667A8.168 8.168 0 0 1 57.548 28H59.5a3.5 3.5 0 0 1 0 7h-1.953a8.168 8.168 0 0 1-7.38 4.667A8.168 8.168 0 0 1 42.786 35H3.5a3.5 3.5 0 0 1 0-7h39.286zM5.453 51.333a8.168 8.168 0 0 1 7.38-4.666 8.168 8.168 0 0 1 7.381 4.666H59.5a3.5 3.5 0 0 1 0 7H20.214A8.168 8.168 0 0 1 12.834 63a8.168 8.168 0 0 1-7.381-4.667H3.5a3.5 3.5 0 1 1 0-7h1.953zM31.5 11.667a3.5 3.5 0 1 0 0-7 3.5 3.5 0 0 0 0 7zM50.167 35a3.5 3.5 0 1 0 0-7 3.5 3.5 0 0 0 0 7zM12.833 58.333a3.5 3.5 0 1 0 0-7 3.5 3.5 0 0 0 0 7z" id="a"/></defs><g transform="translate(10 10)" fill="none" fill-rule="evenodd"><mask id="b" fill="#fff"><use xlink:href="#a"/></mask><use fill="#DF5353" xlink:href="#a"/><g mask="url(#b)" fill="#E7E7E7"><path d="M-11.667-9.333h85.95v81.95h-85.95z"/></g></g></svg>