<svg width="128" height="128" xmlns="http://www.w3.org/2000/svg" xmlns:xlink="http://www.w3.org/1999/xlink"><defs><path d="M64 109c-24.853 0-45-20.147-45-45s20.147-45 45-45 45 20.147 45 45-20.147 45-45 45zM49.03 33.523C37.788 39.056 30.053 50.624 30.053 64c0 18.749 15.198 33.947 33.947 33.947 18.749 0 33.947-15.198 33.947-33.947 0-13.376-7.735-24.944-18.977-30.477l-5.717 9.53C81.288 46.606 86.895 54.648 86.895 64c0 12.644-10.25 22.895-22.895 22.895-12.644 0-22.895-10.25-22.895-22.895 0-9.351 5.607-17.393 13.642-20.948l-5.717-9.529zm10.233-4.26h9.474v22.105h-9.474V29.263z" id="a"/></defs><g fill="none" fill-rule="evenodd"><mask id="b" fill="#fff"><use xlink:href="#a"/></mask><use fill="#D8D8D8" xlink:href="#a"/><g mask="url(#b)" fill="#E7E7E7"><path d="M0 0h128.021v128.021H0z"/></g></g></svg>