<svg height="128" viewBox="0 0 128 128" width="128" xmlns="http://www.w3.org/2000/svg" xmlns:xlink="http://www.w3.org/1999/xlink"><defs><path id="a" d="m78 72.8h-15-17c0-4.9705627 3.8055796-9 8.5-9 3.3374034 0 6.2255679 2.036563 7.6164537 5h15.8835463v-33c.0150274 0 .0300508.000017.0450701.0000509-1.5272695-14.7048347-14.1587425-26.2000509-29.5450701-26.2000509s-28.0178006 11.4952162-29.5450701 26.2000509c.0150193-.0000339.0300427-.0000509.0450701-.0000509v37c-10.49341025 0-19-8.2827321-19-18.5 0-6.7269779 3.68744826-12.6153706 9.20159534-15.8533958.19221103-21.2814158 17.72844176-38.4466042 39.29840466-38.4466042s39.1061936 17.1651884 39.2984047 38.4466042c5.514147 3.2380252 9.2015953 9.1264179 9.2015953 15.8533958 0 10.2172679-8.5065898 18.5-19 18.5z"/><mask id="b" fill="#fff"><use fill="#fff" fill-rule="evenodd" xlink:href="#a"/></mask></defs><g fill="none" fill-rule="evenodd" transform="translate(16 28)"><use fill="#979797" fill-rule="nonzero" xlink:href="#a"/><g fill="#e7e7e7" mask="url(#b)"><path d="m0 0h128.02087v128.02087h-128.02087z" transform="translate(-16 -28)"/></g></g></svg>