<?xml version="1.0" encoding="UTF-8"?>
<svg width="7px" height="8px" viewBox="0 0 7 8" version="1.1" xmlns="http://www.w3.org/2000/svg" xmlns:xlink="http://www.w3.org/1999/xlink">
    <!-- Generator: Sketch 52.3 (67297) - http://www.bohemiancoding.com/sketch -->
    <title>Group 5</title>
    <desc>Created with Sketch.</desc>
    <g id="Log-In-+-Launcher" stroke="none" stroke-width="1" fill="none" fill-rule="evenodd">
        <g id="LogIn_00_SignInLanding" transform="translate(-882.000000, -210.000000)" fill="#83B8DA" fill-rule="nonzero">
            <g id="Group-5" transform="translate(881.000000, 210.000000)">
                <path d="M5.25155671,7.36098207 C5.25155671,7.85803835 4.84861299,8.26098207 4.35155671,8.26098207 C3.85450044,8.26098207 3.45155671,7.85803835 3.45155671,7.36098207 L3.45155671,0.468194549 C3.45155671,-0.0288617254 3.85450044,-0.431805451 4.35155671,-0.431805451 C4.84861299,-0.431805451 5.25155671,-0.0288617254 5.25155671,0.468194549 L5.25155671,7.36098207 Z" id="Path" transform="translate(4.351557, 3.914588) rotate(45.000000) translate(-4.351557, -3.914588) "></path>
                <path d="M0.905162949,4.81458831 C0.408106674,4.81458831 0.0051629493,4.41164459 0.0051629493,3.91458831 C0.0051629493,3.41753204 0.408106674,3.01458831 0.905162949,3.01458831 L7.79795047,3.01458831 C8.29500675,3.01458831 8.69795047,3.41753204 8.69795047,3.91458831 C8.69795047,4.41164459 8.29500675,4.81458831 7.79795047,4.81458831 L0.905162949,4.81458831 Z" id="Path" transform="translate(4.351557, 3.914588) rotate(45.000000) translate(-4.351557, -3.914588) "></path>
            </g>
        </g>
    </g>
</svg>