<?xml version="1.0" encoding="utf-8"?>
<!-- Generator: Adobe Illustrator 22.1.0, SVG Export Plug-In . SVG Version: 6.00 Build 0)  -->
<svg version="1.1" id="Layer_1" xmlns="http://www.w3.org/2000/svg" xmlns:xlink="http://www.w3.org/1999/xlink" x="0px" y="0px"
	 viewBox="0 0 7 5" style="enable-background:new 0 0 7 5;" xml:space="preserve">
<style type="text/css">
	.st0{fill:#8BA7B9;}
</style>
<title>Combined Shape 2</title>
<desc>Created with Sketch.</desc>
<g id="Log-In-_x2B_-Launcher">
	<g id="Launcher_03_SearchDirectoryOnLand" transform="translate(-979.000000, -136.000000)">
		<g id="Group-6" transform="translate(450.000000, 80.000000)">
			<g id="ScrollBar" transform="translate(524.000000, 51.000000)">
				<g id="Group-3">
					<g id="Combined-Shape-2" transform="translate(5.000000, 5.000000)">
						<path id="Combined-Shape" class="st0" d="M4.3,0.8C4.2,0.8,4.2,0.8,4.3,0.8C4,0.6,3.8,0.5,3.5,0.5C3.2,0.5,3,0.6,2.8,0.8
							c0,0,0,0-0.1,0.1L0.4,3.2C0,3.6,0,4.2,0.4,4.6s1,0.4,1.4,0l1.7-1.7l1.7,1.7c0.4,0.4,1,0.4,1.4,0c0.4-0.4,0.4-1,0-1.4L4.3,0.8z
							"/>
					</g>
				</g>
			</g>
		</g>
	</g>
</g>
</svg>
