<?xml version="1.0" encoding="utf-8"?>
<!-- Generator: Adobe Illustrator 22.1.0, SVG Export Plug-In . SVG Version: 6.00 Build 0)  -->
<svg version="1.1" id="Layer_1" xmlns="http://www.w3.org/2000/svg" xmlns:xlink="http://www.w3.org/1999/xlink" x="0px" y="0px"
	 viewBox="0 0 7 5" style="enable-background:new 0 0 7 5;" xml:space="preserve">
<style type="text/css">
	.st0{fill:#8BA7B9;}
</style>
<title>Combined Shape 2</title>
<desc>Created with Sketch.</desc>
<g id="Log-In-_x2B_-Launcher">
	<g id="Launcher_03_SearchDirectoryOnLand" transform="translate(-979.000000, -136.000000)">
		<g id="Group-6" transform="translate(450.000000, 80.000000)">
			<g id="ScrollBar" transform="translate(524.000000, 51.000000)">
				<g id="Group-3">
					<g id="Combined-Shape-2" transform="translate(5.000000, 5.000000)">
						<path id="Combined-Shape" class="st0" d="M2.7,4.5C2.8,4.5,2.8,4.6,2.7,4.5C3,4.8,3.2,4.9,3.5,4.9c0.3,0,0.5-0.1,0.7-0.3
							c0,0,0,0,0.1-0.1l2.3-2.3c0.4-0.4,0.4-1,0-1.4c-0.4-0.4-1-0.4-1.4,0L3.5,2.5L1.8,0.8c-0.4-0.4-1-0.4-1.4,0
							C0,1.1,0,1.8,0.4,2.2L2.7,4.5z"/>
					</g>
				</g>
			</g>
		</g>
	</g>
</g>
</svg>
